<?xml version="1.0" standalone="no"?>
<!DOCTYPE svg PUBLIC "-//W3C//DTD SVG 20010904//EN"
 "http://www.w3.org/TR/2001/REC-SVG-20010904/DTD/svg10.dtd">
<svg version="1.0" xmlns="http://www.w3.org/2000/svg"
 width="928.000000pt" height="1120.000000pt" viewBox="0 0 928.000000 1120.000000"
 preserveAspectRatio="none">

<g transform="translate(0.000000,1120.000000) scale(0.100000,-0.100000)"
fill="currentColor" stroke="none">
<path d="M2995 10550 c-31 -13 -64 -48 -71 -77 -15 -57 6 -86 194 -277 182
-185 183 -186 226 -186 78 0 134 73 110 144 -13 37 -351 383 -387 395 -35 13
-45 13 -72 1z"/>
<path d="M3807 9657 c-31 -24 -45 -84 -30 -124 7 -19 211 -238 453 -485 82
-84 88 -88 129 -88 36 0 49 6 77 34 28 28 34 42 34 76 0 46 2 44 -230 285
-342 355 -309 325 -359 325 -33 0 -54 -7 -74 -23z"/>
<path d="M1814 9240 c-54 -21 -80 -100 -52 -153 15 -29 29 -39 118 -85 41 -21
100 -52 130 -69 272 -150 310 -163 356 -125 68 55 56 158 -23 199 -102 53
-232 123 -267 143 -165 92 -215 109 -262 90z"/>
<path d="M2910 8633 c-24 -10 -49 -46 -56 -81 -11 -56 15 -93 98 -137 40 -21
106 -58 146 -82 41 -24 76 -43 79 -43 3 0 17 -8 31 -19 15 -10 63 -37 107 -61
97 -53 125 -68 194 -109 66 -39 102 -47 140 -31 41 17 63 54 64 107 0 54 -18
74 -113 126 -36 19 -89 49 -118 66 -29 17 -55 31 -58 31 -2 0 -21 10 -42 23
-20 13 -64 39 -97 57 -33 18 -112 61 -176 96 -112 62 -154 74 -199 57z"/>
<path d="M4835 8618 c-40 -23 -55 -50 -55 -99 l0 -48 163 -173 c329 -349 359
-378 395 -378 47 0 87 24 106 64 20 43 20 64 -2 98 -24 37 -470 509 -502 530
-29 20 -76 23 -105 6z"/>
<path d="M4240 7904 c-82 -28 -113 -97 -74 -163 19 -31 22 -34 153 -106 113
-61 127 -69 291 -165 259 -151 268 -154 325 -128 59 27 75 126 28 170 -26 23
-127 88 -138 88 -3 0 -50 27 -106 60 -55 33 -102 60 -104 60 -2 0 -28 14 -57
31 -29 17 -66 39 -83 48 -16 9 -61 35 -100 58 -72 43 -109 56 -135 47z"/>
<path d="M1123 7686 c-33 -15 -63 -60 -63 -96 0 -33 28 -78 58 -94 15 -7 61
-21 102 -30 41 -10 158 -37 260 -62 102 -24 193 -46 203 -49 61 -13 114 51
104 126 -8 60 -34 80 -142 106 -487 119 -479 118 -522 99z"/>
<path d="M5822 7593 c-44 -21 -67 -69 -58 -117 6 -29 41 -72 179 -218 334
-355 317 -338 364 -338 59 0 102 39 110 97 6 46 -7 71 -79 143 -39 40 -225
235 -340 357 -86 92 -118 106 -176 76z"/>
<path d="M2364 7379 c-49 -24 -68 -98 -38 -148 24 -41 39 -47 206 -86 84 -19
178 -42 208 -50 30 -9 93 -24 140 -34 47 -11 122 -29 168 -40 129 -33 179 -26
207 28 32 62 10 127 -52 154 -21 9 -110 32 -198 52 -88 20 -252 59 -365 86
-212 51 -241 55 -276 38z"/>
<path d="M6720 7228 c-13 -7 -35 -29 -47 -47 l-23 -34 0 -1111 c0 -741 4
-1124 11 -1149 12 -43 42 -67 98 -74 45 -6 51 -3 271 135 368 232 448 283 557
350 519 321 498 308 532 363 20 33 21 48 21 364 0 186 -4 345 -10 365 -5 20
-24 50 -42 67 -28 25 -227 151 -358 225 -19 11 -42 26 -51 34 -8 8 -19 14 -22
14 -4 0 -31 15 -60 34 -48 31 -93 57 -152 90 -11 6 -45 27 -75 47 -30 19 -62
38 -70 42 -8 4 -55 32 -104 62 -49 30 -93 55 -97 55 -5 0 -9 5 -9 10 0 6 -5
10 -11 10 -6 0 -31 14 -56 30 -24 17 -46 30 -48 30 -2 0 -36 20 -74 45 -77 50
-139 65 -181 43z"/>
<path d="M5484 7159 c-52 -26 -70 -115 -33 -163 11 -14 53 -45 92 -67 155 -89
266 -155 362 -212 155 -92 164 -97 191 -97 35 0 80 28 93 57 6 13 11 40 11 60
0 41 -39 84 -106 118 -21 10 -79 45 -129 76 -49 30 -124 76 -165 100 -41 24
-84 49 -95 56 -11 7 -27 15 -35 19 -8 4 -36 20 -61 36 -48 29 -88 34 -125 17z"/>
<path d="M3844 7016 c-83 -36 -87 -153 -7 -191 19 -9 120 -38 226 -65 106 -27
235 -60 287 -74 52 -14 107 -26 122 -26 15 0 29 -4 33 -9 8 -14 88 -24 124
-16 71 15 94 134 35 181 -26 22 -60 32 -249 78 -55 14 -196 50 -313 81 -118
30 -217 55 -220 55 -4 -1 -21 -7 -38 -14z"/>
<path d="M5274 6651 c-36 -16 -64 -60 -64 -103 0 -60 37 -89 147 -117 48 -12
122 -31 163 -41 41 -11 102 -26 135 -35 72 -20 145 -38 242 -61 61 -14 77 -15
103 -4 86 36 74 186 -17 203 -32 5 -370 94 -513 133 -108 30 -166 38 -196 25z"/>
<path d="M880 6127 c-49 -38 -62 -95 -35 -147 30 -58 45 -60 370 -60 259 0
301 2 325 17 68 40 67 153 -1 189 -38 19 -635 20 -659 1z"/>
<path d="M2181 6124 c-57 -41 -60 -126 -5 -174 l35 -30 410 0 c365 0 414 2
439 17 47 28 64 92 38 148 -24 54 -32 55 -480 55 -366 0 -416 -2 -437 -16z"/>
<path d="M3694 6122 c-50 -42 -49 -125 2 -173 l26 -24 392 -4 c347 -3 397 -1
424 13 54 28 76 94 50 151 -24 54 -33 55 -470 55 -367 -1 -405 -2 -424 -18z"/>
<path d="M5167 6115 c-46 -47 -40 -127 12 -165 28 -19 43 -20 401 -20 l372 0
29 31 c41 44 41 108 0 150 l-29 29 -380 0 -379 0 -26 -25z"/>
<path d="M5875 5784 c-105 -25 -137 -32 -285 -62 -382 -79 -369 -75 -390 -138
-13 -37 -7 -66 22 -106 31 -45 67 -45 275 2 104 24 259 57 345 75 102 20 165
38 178 50 42 38 44 131 2 168 -25 23 -79 27 -147 11z"/>
<path d="M4538 5494 c-4 -3 -30 -9 -60 -14 -29 -5 -73 -14 -98 -19 -25 -5 -67
-15 -95 -20 -27 -6 -57 -14 -65 -18 -8 -3 -26 -8 -40 -9 -14 -2 -43 -7 -65
-13 -22 -5 -67 -15 -100 -22 -121 -25 -209 -50 -232 -65 -68 -44 -51 -162 27
-185 38 -11 66 -8 220 29 141 34 349 80 464 103 113 21 147 37 165 77 16 33
13 84 -5 110 -25 37 -97 65 -116 46z"/>
<path d="M6000 5430 c-19 -11 -159 -80 -310 -155 -162 -80 -285 -146 -299
-162 -33 -37 -26 -116 13 -150 52 -44 75 -37 422 138 175 88 323 168 329 177
30 51 25 99 -15 142 -33 36 -84 39 -140 10z"/>
<path d="M2930 5136 c-74 -18 -162 -39 -195 -46 -33 -7 -107 -24 -165 -37 -58
-13 -125 -28 -150 -34 -103 -23 -120 -30 -139 -58 -30 -41 -28 -101 4 -139 32
-38 66 -44 140 -26 33 9 76 19 95 24 19 4 85 20 145 34 139 33 407 92 460 102
106 19 131 155 38 203 -34 17 -88 12 -233 -23z"/>
<path d="M6240 5138 c-33 -12 -45 -22 -251 -209 -14 -13 -68 -63 -120 -110
-52 -47 -113 -102 -136 -123 -74 -66 -80 -149 -13 -193 39 -27 86 -29 120 -6
23 16 304 271 473 427 64 61 67 65 67 111 0 39 -5 52 -30 75 -32 30 -75 41
-110 28z"/>
<path d="M6474 4864 c-18 -9 -47 -42 -75 -85 -49 -79 -180 -284 -276 -433 -35
-55 -66 -110 -69 -123 -21 -82 74 -155 158 -120 26 11 50 41 118 152 47 76 95
155 107 174 13 20 32 52 43 71 12 19 50 80 86 135 69 108 78 144 47 192 -16
25 -68 53 -95 53 -7 0 -27 -7 -44 -16z"/>
<path d="M1575 4820 c-22 -5 -58 -13 -80 -18 -22 -5 -94 -21 -160 -35 -257
-55 -268 -58 -297 -89 -48 -52 -31 -142 33 -168 33 -14 89 -8 229 25 36 9 88
20 115 25 28 6 68 14 90 19 22 5 67 15 100 22 75 15 110 39 125 84 13 41 1 92
-29 119 -23 21 -73 27 -126 16z"/>
<path d="M4585 4726 c-88 -46 -236 -122 -330 -170 -98 -50 -180 -98 -192 -114
-49 -58 -21 -148 53 -172 33 -11 41 -9 102 22 198 101 553 279 592 296 54 24
77 48 90 92 12 42 -11 95 -51 115 -55 29 -95 19 -264 -69z"/>
<path d="M5175 4171 c-30 -18 -96 -78 -330 -296 -66 -62 -138 -127 -160 -146
-91 -78 -110 -120 -80 -182 19 -40 50 -57 105 -57 39 0 50 7 136 85 102 93
200 182 208 190 6 6 73 66 148 133 114 102 138 129 144 158 18 96 -87 168
-171 115z"/>
<path d="M3343 4096 c-56 -30 -151 -80 -210 -111 -59 -32 -169 -89 -243 -127
-160 -82 -180 -100 -187 -160 -4 -37 -1 -49 21 -75 16 -19 39 -33 61 -37 32
-6 64 8 313 135 152 78 315 161 362 185 100 51 120 73 119 134 0 52 -11 70
-56 93 -48 25 -69 21 -180 -37z"/>
<path d="M5720 3683 c-24 -10 -39 -30 -160 -222 -249 -393 -270 -429 -270
-473 0 -32 6 -46 31 -69 17 -16 41 -29 53 -30 41 -2 71 3 89 16 18 13 94 128
168 255 18 30 72 115 121 188 49 74 98 149 109 168 44 80 5 162 -81 170 -25 2
-52 1 -60 -3z"/>
<path d="M1855 3330 c-152 -76 -248 -130 -262 -148 -29 -35 -30 -86 -1 -128
38 -55 90 -58 186 -11 37 19 103 52 147 74 44 22 124 61 177 87 105 51 138 83
138 136 0 38 -24 86 -49 100 -49 26 -91 12 -336 -110z"/>
<path d="M4098 3187 c-15 -7 -51 -35 -80 -62 -29 -28 -96 -88 -148 -134 -151
-133 -281 -252 -332 -304 -43 -43 -48 -52 -48 -93 0 -39 5 -51 31 -75 25 -23
40 -29 75 -29 41 0 49 5 156 103 62 56 162 145 223 197 60 52 117 102 125 110
9 8 39 35 69 60 78 66 97 114 69 174 -22 49 -92 75 -140 53z"/>
<path d="M4943 2468 c-13 -6 -37 -34 -55 -62 -17 -28 -60 -94 -93 -146 -34
-52 -84 -130 -111 -173 -27 -43 -67 -106 -88 -140 -66 -105 -76 -126 -76 -165
1 -80 84 -126 160 -87 16 8 45 42 66 77 46 76 119 190 231 360 46 70 95 150
110 178 24 47 25 53 12 92 -21 66 -94 96 -156 66z"/>
<path d="M2925 2139 c-33 -28 -87 -74 -119 -102 -32 -29 -68 -59 -80 -67 -19
-13 -56 -44 -111 -95 -57 -52 -62 -120 -11 -171 59 -59 115 -42 238 72 24 22
83 73 131 113 159 132 167 141 167 195 0 39 -5 53 -29 77 -25 24 -38 29 -78
29 -43 0 -54 -5 -108 -51z"/>
<path d="M4168 1259 c-18 -7 -49 -45 -99 -122 -40 -62 -93 -143 -118 -182 -82
-124 -92 -155 -66 -204 27 -54 118 -75 165 -38 13 11 128 181 234 350 56 90
47 163 -26 191 -43 18 -52 18 -90 5z"/>
</g>
</svg>
