<?xml version="1.0" standalone="no"?>
<!DOCTYPE svg PUBLIC "-//W3C//DTD SVG 20010904//EN"
 "http://www.w3.org/TR/2001/REC-SVG-20010904/DTD/svg10.dtd">
<svg version="1.0" xmlns="http://www.w3.org/2000/svg"
 width="928.000000pt" height="1120.000000pt" viewBox="0 0 928.000000 1120.000000"
 preserveAspectRatio="none">

<g transform="translate(0.000000,1120.000000) scale(0.100000,-0.100000)"
fill="currentColor" stroke="none">
<path d="M5265 10502 c-11 -4 -27 -11 -35 -17 -13 -9 -120 -167 -234 -348 -58
-92 -47 -164 30 -193 35 -13 49 -14 77 -5 30 10 47 31 108 124 40 62 93 143
118 182 54 81 80 133 81 158 0 33 -29 74 -64 91 -36 17 -48 18 -81 8z"/>
<path d="M6527 9497 c-25 -18 -65 -51 -89 -73 -24 -22 -83 -73 -131 -113 -159
-132 -167 -141 -167 -195 0 -39 5 -53 29 -77 25 -24 38 -29 78 -29 51 0 54 2
227 153 32 29 68 59 80 67 19 13 56 44 111 95 57 52 62 120 11 171 -45 45 -86
46 -149 1z"/>
<path d="M4598 9505 c-14 -8 -43 -43 -64 -77 -46 -76 -119 -190 -231 -360 -46
-70 -95 -150 -110 -178 -24 -47 -25 -53 -12 -92 21 -66 90 -95 154 -66 14 6
39 34 57 62 17 28 60 94 93 146 34 52 84 130 111 173 27 43 67 106 88 140 66
105 76 126 76 165 -1 80 -87 127 -162 87z"/>
<path d="M5528 8608 c-62 -57 -162 -146 -223 -198 -60 -52 -117 -102 -125
-110 -9 -8 -39 -35 -69 -60 -78 -66 -97 -114 -69 -174 22 -49 92 -75 140 -53
15 7 51 35 80 62 29 28 96 88 148 134 151 133 281 252 333 304 42 43 47 52 47
93 0 39 -5 51 -31 75 -25 23 -40 29 -75 29 -41 0 -49 -5 -156 -102z"/>
<path d="M3860 8312 c-13 -2 -33 -10 -43 -17 -18 -13 -94 -128 -168 -255 -18
-30 -72 -115 -121 -188 -49 -74 -98 -149 -109 -168 -28 -51 -25 -97 10 -136
26 -30 35 -33 84 -33 44 0 59 4 74 21 19 22 188 286 326 510 91 147 99 186 47
234 -31 29 -59 38 -100 32z"/>
<path d="M7500 8156 c-139 -70 -229 -115 -322 -160 -105 -51 -138 -83 -138
-136 0 -38 24 -86 49 -100 49 -26 89 -12 338 112 169 84 250 130 264 149 25
36 24 85 -3 125 -38 55 -93 58 -188 10z"/>
<path d="M4488 7673 c-24 -21 -48 -42 -54 -48 -102 -93 -200 -182 -208 -190
-6 -6 -73 -66 -148 -133 -114 -102 -138 -129 -144 -158 -18 -96 87 -168 171
-115 30 18 96 78 330 296 66 62 138 127 160 146 91 78 110 120 80 182 -19 40
-50 57 -105 57 -32 0 -49 -8 -82 -37z"/>
<path d="M6190 7484 c-146 -75 -308 -158 -360 -185 -52 -27 -103 -59 -112 -71
-20 -27 -24 -105 -5 -129 16 -21 71 -49 97 -49 19 0 201 90 365 180 28 15 118
62 200 105 83 42 161 87 174 100 15 15 25 38 28 67 5 39 2 49 -23 76 -57 61
-68 58 -364 -94z"/>
<path d="M3062 7093 c-29 -16 -125 -158 -219 -323 -8 -14 -26 -44 -41 -67
-125 -193 -152 -240 -152 -271 0 -46 33 -89 79 -103 59 -18 97 6 152 92 73
117 209 329 264 414 89 137 97 159 73 209 -24 54 -102 78 -156 49z"/>
<path d="M5023 6889 c-122 -64 -492 -250 -553 -277 -54 -24 -77 -48 -90 -92
-12 -42 11 -95 51 -115 56 -30 89 -20 296 86 109 56 259 133 333 171 74 38
145 81 157 96 28 33 31 97 7 131 -15 21 -69 51 -94 51 -5 0 -54 -23 -107 -51z"/>
<path d="M3440 6703 c-23 -16 -304 -271 -472 -427 -65 -61 -68 -65 -68 -111 0
-71 53 -115 130 -106 22 3 70 39 157 118 43 39 90 81 104 94 14 13 68 63 120
110 52 47 113 102 136 123 74 66 80 149 13 194 -39 26 -86 28 -120 5z"/>
<path d="M8090 6690 c-19 -4 -66 -15 -105 -24 -38 -9 -92 -21 -120 -26 -27 -6
-68 -14 -90 -19 -22 -5 -67 -15 -100 -22 -77 -16 -112 -40 -126 -89 -10 -32
-9 -44 7 -77 33 -67 69 -72 229 -35 22 5 94 21 160 35 257 55 268 58 297 89
19 21 28 41 28 64 0 93 -64 130 -180 104z"/>
<path d="M6850 6403 c-30 -8 -71 -18 -90 -23 -203 -48 -277 -65 -410 -94 -85
-19 -173 -38 -195 -42 -106 -19 -131 -155 -38 -203 35 -18 78 -13 228 23 77
18 167 39 200 46 33 7 107 24 165 37 58 13 125 28 150 34 103 23 120 30 139
58 31 43 28 103 -6 140 -35 37 -72 43 -143 24z"/>
<path d="M2380 6332 c-52 -32 -131 -81 -175 -108 -182 -116 -401 -253 -512
-322 -519 -321 -498 -308 -532 -363 -20 -33 -21 -48 -21 -364 0 -186 4 -345
10 -365 5 -20 24 -50 42 -67 28 -25 227 -151 358 -225 19 -11 42 -26 51 -34 8
-8 19 -14 22 -14 4 0 31 -15 60 -34 48 -31 93 -57 152 -90 11 -6 45 -27 75
-47 30 -19 62 -38 70 -42 8 -4 55 -32 104 -62 49 -30 93 -55 97 -55 5 0 9 -4
9 -10 0 -5 5 -10 11 -10 6 0 31 -13 56 -30 24 -16 46 -30 48 -30 2 0 36 -20
74 -45 110 -71 178 -70 228 4 l23 34 -1 1116 c0 837 -3 1125 -12 1151 -8 24
-23 41 -47 52 -58 29 -88 23 -190 -40z"/>
<path d="M3450 6098 c-173 -87 -319 -167 -325 -176 -30 -51 -25 -99 15 -142
34 -36 79 -40 137 -11 21 11 162 81 313 156 162 80 285 146 299 162 33 37 26
116 -13 150 -53 45 -81 37 -426 -139z"/>
<path d="M5370 6070 c-19 -4 -73 -17 -120 -28 -138 -34 -347 -80 -464 -103
-142 -27 -176 -53 -176 -132 0 -40 21 -72 62 -93 26 -14 40 -15 82 -6 28 6 65
14 81 17 17 3 48 10 70 15 22 5 63 14 90 19 28 6 57 14 65 18 8 3 26 8 40 9
14 2 43 7 65 13 22 5 67 15 100 22 121 25 209 50 232 65 65 42 52 159 -20 184
-34 11 -56 11 -107 0z"/>
<path d="M3795 5723 c-82 -19 -232 -51 -333 -72 -119 -25 -189 -44 -202 -56
-42 -38 -44 -131 -2 -167 36 -32 56 -31 247 11 22 5 105 23 185 39 384 79 371
75 391 143 21 68 -34 140 -106 138 -16 0 -97 -17 -180 -36z"/>
<path d="M4738 5265 c-73 -41 -75 -160 -3 -193 19 -9 137 -12 428 -12 366 1
404 2 423 18 50 42 49 125 -2 173 l-26 24 -396 3 c-343 2 -401 0 -424 -13z"/>
<path d="M6218 5263 c-67 -42 -63 -159 7 -191 19 -9 140 -12 438 -12 456 0
445 -1 472 64 19 47 8 91 -31 126 l-35 30 -412 0 c-366 -1 -415 -2 -439 -17z"/>
<path d="M7738 5263 c-67 -42 -63 -159 7 -191 37 -17 634 -16 655 1 49 38 62
95 35 147 -30 58 -45 60 -372 60 -260 0 -301 -3 -325 -17z"/>
<path d="M3299 5239 c-41 -44 -41 -108 0 -150 l29 -29 380 0 379 0 26 25 c46
47 40 127 -12 165 -28 19 -43 20 -401 20 l-372 0 -29 -31z"/>
<path d="M3271 4906 c-78 -43 -60 -183 26 -199 35 -6 388 -98 513 -134 52 -15
119 -27 148 -28 48 0 57 3 83 33 22 24 29 42 29 73 0 61 -36 90 -147 118 -48
12 -122 31 -163 41 -41 11 -102 26 -135 35 -33 9 -85 23 -115 30 -30 7 -82 20
-115 29 -73 19 -93 19 -124 2z"/>
<path d="M3128 4563 c-32 -20 -48 -52 -48 -100 0 -41 39 -84 106 -118 21 -10
80 -45 129 -76 50 -30 124 -76 165 -100 41 -24 84 -49 95 -56 11 -7 27 -15 35
-19 8 -4 36 -20 61 -36 49 -30 83 -35 122 -17 55 25 75 114 36 163 -11 14 -53
45 -92 67 -155 89 -266 155 -362 212 -156 93 -164 97 -193 97 -15 0 -39 -8
-54 -17z"/>
<path d="M4638 4564 c-9 -3 -27 -21 -39 -40 -16 -27 -20 -45 -16 -77 10 -70
27 -79 282 -141 55 -14 196 -50 314 -81 186 -48 219 -54 248 -45 90 30 100
155 16 195 -19 9 -120 38 -226 65 -106 27 -235 60 -287 74 -52 14 -106 26
-120 26 -15 0 -31 5 -37 11 -11 11 -108 21 -135 13z"/>
<path d="M2900 4253 c-22 -20 -33 -40 -37 -70 -6 -46 7 -71 79 -143 39 -40
225 -235 339 -357 87 -92 116 -105 174 -77 46 22 70 68 61 118 -6 29 -41 72
-179 218 -334 355 -317 338 -364 338 -32 0 -50 -7 -73 -27z"/>
<path d="M6063 4190 c-46 -19 -66 -96 -39 -149 20 -37 62 -53 251 -96 88 -20
252 -59 365 -86 113 -27 215 -49 227 -49 79 0 128 90 87 159 -24 41 -39 47
-206 86 -84 19 -178 42 -208 50 -30 9 -93 24 -140 34 -47 11 -122 29 -168 40
-89 22 -133 25 -169 11z"/>
<path d="M4341 3856 c-33 -18 -50 -53 -51 -102 0 -31 6 -46 28 -66 25 -23 126
-88 137 -88 3 0 50 -27 106 -60 55 -33 102 -60 104 -60 2 0 28 -14 57 -31 29
-17 67 -39 83 -48 17 -9 63 -36 104 -61 47 -28 86 -44 107 -44 89 0 142 89 98
163 -19 31 -22 34 -153 106 -113 61 -127 69 -291 165 -259 151 -274 157 -329
126z"/>
<path d="M7549 3839 c-61 -22 -79 -140 -27 -184 13 -11 64 -30 113 -42 187
-46 421 -102 451 -108 64 -13 134 42 134 105 0 33 -28 78 -58 94 -15 7 -61 21
-102 30 -41 10 -158 37 -260 62 -230 56 -220 54 -251 43z"/>
<path d="M3879 3265 c-27 -15 -59 -69 -59 -102 0 -10 8 -30 18 -45 24 -37 470
-509 502 -530 71 -49 160 3 160 93 l0 48 -162 173 c-335 355 -359 378 -398
378 -19 -1 -47 -7 -61 -15z"/>
<path d="M5622 3127 c-36 -21 -54 -55 -55 -103 0 -55 18 -75 113 -127 36 -19
89 -49 118 -66 29 -17 55 -31 58 -31 2 0 21 -10 42 -23 20 -13 64 -39 97 -57
311 -171 293 -163 340 -157 51 5 81 33 91 85 11 56 -15 93 -98 137 -40 21
-106 58 -146 82 -41 24 -76 43 -79 43 -3 0 -17 8 -31 19 -15 10 -63 37 -107
61 -98 53 -125 68 -195 110 -62 37 -114 47 -148 27z"/>
<path d="M6914 2392 c-68 -55 -56 -158 23 -199 102 -53 232 -123 267 -143 141
-78 198 -102 234 -97 72 12 115 96 80 160 -15 29 -29 39 -118 85 -41 21 -100
52 -130 69 -272 150 -310 163 -356 125z"/>
<path d="M4844 2206 c-28 -28 -34 -42 -34 -76 0 -46 -2 -44 230 -285 341 -354
309 -325 358 -325 81 0 129 63 106 140 -8 25 -174 205 -454 493 -82 83 -88 87
-129 87 -36 0 -49 -6 -77 -34z"/>
<path d="M5861 1164 c-33 -28 -48 -78 -35 -118 5 -13 87 -106 183 -205 177
-184 211 -209 263 -196 34 9 76 50 84 82 15 57 -6 86 -194 277 -182 185 -183
186 -226 186 -33 0 -52 -7 -75 -26z"/>
</g>
</svg>
